<mxfile host="app.diagrams.net" modified="2022-05-26T12:50:42.624Z" agent="5.0 (Windows)" etag="sNygt2VYLVDgFfDJRYgk" version="18.1.2" type="github">
  <diagram id="PFKsmplo3kQ6Acfk-VYe" name="Page-1">
    <mxGraphModel dx="1038" dy="536" grid="1" gridSize="10" guides="1" tooltips="1" connect="1" arrows="1" fold="1" page="1" pageScale="1" pageWidth="850" pageHeight="1100" math="0" shadow="0">
      <root>
        <mxCell id="0" />
        <mxCell id="1" parent="0" />
        <mxCell id="KouKJr41RFO9G8JyNmFd-1" value="" style="ellipse;whiteSpace=wrap;html=1;fillColor=#d0cee2;strokeColor=#FF0080;" vertex="1" parent="1">
          <mxGeometry x="360" y="240" width="120" height="80" as="geometry" />
        </mxCell>
        <mxCell id="KouKJr41RFO9G8JyNmFd-2" value="Message Management" style="text;html=1;strokeColor=none;fillColor=none;align=center;verticalAlign=middle;whiteSpace=wrap;rounded=0;" vertex="1" parent="1">
          <mxGeometry x="389" y="263" width="60" height="30" as="geometry" />
        </mxCell>
        <mxCell id="KouKJr41RFO9G8JyNmFd-7" value="" style="group" vertex="1" connectable="0" parent="1">
          <mxGeometry x="230" y="130" width="120" height="80" as="geometry" />
        </mxCell>
        <mxCell id="KouKJr41RFO9G8JyNmFd-3" value="" style="ellipse;whiteSpace=wrap;html=1;fillColor=#d5e8d4;strokeColor=#0000FF;gradientColor=#97d077;" vertex="1" parent="KouKJr41RFO9G8JyNmFd-7">
          <mxGeometry width="120" height="80" as="geometry" />
        </mxCell>
        <mxCell id="KouKJr41RFO9G8JyNmFd-4" value="Search users" style="text;html=1;strokeColor=none;fillColor=none;align=center;verticalAlign=middle;whiteSpace=wrap;rounded=0;" vertex="1" parent="KouKJr41RFO9G8JyNmFd-7">
          <mxGeometry x="30" y="25" width="60" height="30" as="geometry" />
        </mxCell>
        <mxCell id="KouKJr41RFO9G8JyNmFd-8" value="" style="group" vertex="1" connectable="0" parent="1">
          <mxGeometry x="490" y="120" width="120" height="80" as="geometry" />
        </mxCell>
        <mxCell id="KouKJr41RFO9G8JyNmFd-10" value="" style="group" vertex="1" connectable="0" parent="KouKJr41RFO9G8JyNmFd-8">
          <mxGeometry width="120" height="80" as="geometry" />
        </mxCell>
        <mxCell id="KouKJr41RFO9G8JyNmFd-5" value="" style="ellipse;whiteSpace=wrap;html=1;fillColor=#fff2cc;gradientColor=#ffd966;strokeColor=#00CC00;" vertex="1" parent="KouKJr41RFO9G8JyNmFd-10">
          <mxGeometry width="120" height="80" as="geometry" />
        </mxCell>
        <mxCell id="KouKJr41RFO9G8JyNmFd-6" value="Send messages" style="text;html=1;strokeColor=none;fillColor=none;align=center;verticalAlign=middle;whiteSpace=wrap;rounded=0;" vertex="1" parent="KouKJr41RFO9G8JyNmFd-10">
          <mxGeometry x="30" y="25" width="60" height="30" as="geometry" />
        </mxCell>
        <mxCell id="KouKJr41RFO9G8JyNmFd-15" value="" style="group" vertex="1" connectable="0" parent="1">
          <mxGeometry x="550" y="310" width="120" height="80" as="geometry" />
        </mxCell>
        <mxCell id="KouKJr41RFO9G8JyNmFd-16" value="" style="group" vertex="1" connectable="0" parent="KouKJr41RFO9G8JyNmFd-15">
          <mxGeometry width="120" height="80" as="geometry" />
        </mxCell>
        <mxCell id="KouKJr41RFO9G8JyNmFd-17" value="" style="ellipse;whiteSpace=wrap;html=1;fillColor=#f5f5f5;gradientColor=#b3b3b3;strokeColor=#CCCC00;" vertex="1" parent="KouKJr41RFO9G8JyNmFd-16">
          <mxGeometry width="120" height="80" as="geometry" />
        </mxCell>
        <mxCell id="KouKJr41RFO9G8JyNmFd-18" value="&lt;div&gt;Receive messages&lt;/div&gt;&lt;div&gt;(real-time)&lt;br&gt;&lt;/div&gt;" style="text;html=1;strokeColor=none;fillColor=none;align=center;verticalAlign=middle;whiteSpace=wrap;rounded=0;" vertex="1" parent="KouKJr41RFO9G8JyNmFd-16">
          <mxGeometry x="30" y="25" width="60" height="30" as="geometry" />
        </mxCell>
        <mxCell id="KouKJr41RFO9G8JyNmFd-19" value="" style="group" vertex="1" connectable="0" parent="1">
          <mxGeometry x="380" y="390" width="120" height="80" as="geometry" />
        </mxCell>
        <mxCell id="KouKJr41RFO9G8JyNmFd-20" value="" style="group" vertex="1" connectable="0" parent="KouKJr41RFO9G8JyNmFd-19">
          <mxGeometry width="120" height="80" as="geometry" />
        </mxCell>
        <mxCell id="KouKJr41RFO9G8JyNmFd-21" value="" style="ellipse;whiteSpace=wrap;html=1;fillColor=#f8cecc;gradientColor=#ea6b66;strokeColor=#00FFFF;" vertex="1" parent="KouKJr41RFO9G8JyNmFd-20">
          <mxGeometry width="120" height="80" as="geometry" />
        </mxCell>
        <mxCell id="KouKJr41RFO9G8JyNmFd-22" value="Delete chat" style="text;html=1;strokeColor=none;fillColor=none;align=center;verticalAlign=middle;whiteSpace=wrap;rounded=0;" vertex="1" parent="KouKJr41RFO9G8JyNmFd-20">
          <mxGeometry x="30" y="25" width="60" height="30" as="geometry" />
        </mxCell>
        <mxCell id="KouKJr41RFO9G8JyNmFd-23" value="" style="group;fillColor=none;" vertex="1" connectable="0" parent="1">
          <mxGeometry x="200" y="330" width="120" height="80" as="geometry" />
        </mxCell>
        <mxCell id="KouKJr41RFO9G8JyNmFd-24" value="" style="group" vertex="1" connectable="0" parent="KouKJr41RFO9G8JyNmFd-23">
          <mxGeometry width="120" height="80" as="geometry" />
        </mxCell>
        <mxCell id="KouKJr41RFO9G8JyNmFd-25" value="" style="ellipse;whiteSpace=wrap;html=1;fillColor=#fff2cc;strokeColor=#FF00FF;" vertex="1" parent="KouKJr41RFO9G8JyNmFd-24">
          <mxGeometry width="120" height="80" as="geometry" />
        </mxCell>
        <mxCell id="KouKJr41RFO9G8JyNmFd-26" value="Genarate and download chat history" style="text;html=1;strokeColor=none;fillColor=none;align=center;verticalAlign=middle;whiteSpace=wrap;rounded=0;" vertex="1" parent="KouKJr41RFO9G8JyNmFd-24">
          <mxGeometry x="30" y="25" width="60" height="30" as="geometry" />
        </mxCell>
        <mxCell id="KouKJr41RFO9G8JyNmFd-28" value="" style="endArrow=none;html=1;rounded=0;exitX=1;exitY=0;exitDx=0;exitDy=0;entryX=0;entryY=1;entryDx=0;entryDy=0;" edge="1" parent="1" source="KouKJr41RFO9G8JyNmFd-25" target="KouKJr41RFO9G8JyNmFd-1">
          <mxGeometry width="50" height="50" relative="1" as="geometry">
            <mxPoint x="400" y="300" as="sourcePoint" />
            <mxPoint x="450" y="250" as="targetPoint" />
          </mxGeometry>
        </mxCell>
        <mxCell id="KouKJr41RFO9G8JyNmFd-29" value="" style="endArrow=none;html=1;rounded=0;entryX=0;entryY=0;entryDx=0;entryDy=0;exitX=1;exitY=1;exitDx=0;exitDy=0;" edge="1" parent="1" source="KouKJr41RFO9G8JyNmFd-3" target="KouKJr41RFO9G8JyNmFd-1">
          <mxGeometry width="50" height="50" relative="1" as="geometry">
            <mxPoint x="340" y="220" as="sourcePoint" />
            <mxPoint x="370" y="290" as="targetPoint" />
          </mxGeometry>
        </mxCell>
        <mxCell id="KouKJr41RFO9G8JyNmFd-30" value="" style="endArrow=none;html=1;rounded=0;entryX=1;entryY=0;entryDx=0;entryDy=0;exitX=0;exitY=1;exitDx=0;exitDy=0;" edge="1" parent="1" source="KouKJr41RFO9G8JyNmFd-5" target="KouKJr41RFO9G8JyNmFd-1">
          <mxGeometry width="50" height="50" relative="1" as="geometry">
            <mxPoint x="342.42640687119274" y="208.2842712474619" as="sourcePoint" />
            <mxPoint x="387.57359312880726" y="261.7157287525381" as="targetPoint" />
          </mxGeometry>
        </mxCell>
        <mxCell id="KouKJr41RFO9G8JyNmFd-31" value="" style="endArrow=none;html=1;rounded=0;exitX=0.5;exitY=0;exitDx=0;exitDy=0;entryX=0.5;entryY=1;entryDx=0;entryDy=0;" edge="1" parent="1" source="KouKJr41RFO9G8JyNmFd-21" target="KouKJr41RFO9G8JyNmFd-1">
          <mxGeometry width="50" height="50" relative="1" as="geometry">
            <mxPoint x="312.42640687119274" y="351.7157287525381" as="sourcePoint" />
            <mxPoint x="387.57359312880726" y="318.2842712474619" as="targetPoint" />
          </mxGeometry>
        </mxCell>
        <mxCell id="KouKJr41RFO9G8JyNmFd-32" value="" style="endArrow=none;html=1;rounded=0;exitX=0;exitY=0;exitDx=0;exitDy=0;entryX=1;entryY=0.5;entryDx=0;entryDy=0;" edge="1" parent="1" source="KouKJr41RFO9G8JyNmFd-17" target="KouKJr41RFO9G8JyNmFd-1">
          <mxGeometry width="50" height="50" relative="1" as="geometry">
            <mxPoint x="435" y="400" as="sourcePoint" />
            <mxPoint x="430" y="330" as="targetPoint" />
          </mxGeometry>
        </mxCell>
      </root>
    </mxGraphModel>
  </diagram>
</mxfile>
